# Blender v2.92.0 OBJ File: 'chess_scene_pieces.blend'
# www.blender.org
mtllib bishop.mtl
o Bishop
v 0.144620 9.732566 -0.144620
v 0.144620 9.496403 -0.144620
v 0.204524 9.732566 -0.000000
v 0.204524 9.496403 -0.000000
v 0.144620 9.732566 0.144620
v 0.144620 9.496403 0.144620
v 0.000001 9.732566 0.204523
v 0.000001 9.496403 0.204523
v 0.000001 9.850647 0.000000
v -0.144619 9.732566 0.144620
v -0.144619 9.496403 0.144620
v -0.204522 9.732566 -0.000000
v -0.204522 9.496403 -0.000000
v -0.144619 9.732566 -0.144620
v -0.144619 9.496403 -0.144620
v 0.000001 9.732566 -0.204523
v 0.000001 9.496403 -0.204523
v 0.000001 9.378323 0.000000
v -0.117149 7.016781 0.693854
v 0.000001 6.691500 -0.713056
v 0.460017 8.923805 -0.460016
v 0.713273 7.864697 -0.713271
v 0.504208 6.691500 -0.504206
v 0.650563 8.923805 0.000001
v 1.008719 7.864697 0.000001
v 0.713057 6.691500 0.000001
v 0.460017 8.923805 0.460017
v 0.713273 7.864697 0.713272
v 0.504208 6.691500 0.504208
v 0.937523 6.298270 0.000000
v 0.000001 8.923805 0.650562
v 0.000001 6.691500 0.713057
v 1.136728 6.123886 0.000000
v 0.000001 9.378323 0.000001
v -0.713271 7.864697 0.713272
v -0.504206 6.691500 0.504208
v 0.000001 6.445661 0.941341
v -0.650561 8.923805 0.000001
v -1.008718 7.864697 0.000001
v -0.713056 6.691500 0.000001
v 0.000001 6.298270 0.937522
v -0.713271 7.864697 -0.713271
v -0.504206 6.691500 -0.504206
v 0.000001 6.123886 1.136728
v 0.000001 2.000000 -1.999999
v 0.000001 3.664435 -1.023046
v 1.414214 2.000000 -1.414213
v 0.723404 3.664435 -0.723403
v 2.000001 2.000000 0.000000
v 1.023048 3.664435 0.000000
v 1.414214 2.000000 1.414214
v 0.723404 3.664435 0.723404
v 0.000000 2.000000 2.000001
v 0.000001 3.664435 1.023047
v -1.414214 2.000000 1.414213
v -0.723403 3.664435 0.723403
v -1.999999 2.000000 -0.000001
v -1.023046 3.664435 -0.000001
v -1.414211 2.000000 -1.414215
v -0.723401 3.664435 -0.723404
v 0.000001 3.437039 -1.227852
v 0.000001 3.567677 -1.218314
v 0.861479 3.567677 -0.861478
v 0.868223 3.437039 -0.868222
v 1.218315 3.567677 0.000000
v 1.227853 3.437039 0.000000
v 0.861479 3.567677 0.861478
v 0.868223 3.437039 0.868223
v 0.000001 3.567677 1.218314
v 0.000001 3.437039 1.227852
v -0.861478 3.567677 0.861478
v -0.868222 3.437039 0.868222
v -1.218313 3.567677 -0.000001
v -1.227851 3.437039 -0.000001
v -0.861476 3.567677 -0.861479
v -0.868220 3.437039 -0.868223
v 0.000001 2.214252 -1.992781
v 1.409110 2.214252 -1.409109
v 1.992783 2.214252 0.000000
v 1.409110 2.214252 1.409110
v 0.000000 2.214252 1.992782
v -1.409109 2.214252 1.409109
v -1.992781 2.214252 -0.000001
v -1.409107 2.214252 -1.409111
v 0.000001 2.864590 -1.848506
v 1.307092 2.864590 -1.307091
v 1.848508 2.864590 0.000000
v 1.307092 2.864590 1.307092
v 0.000000 2.864590 1.848507
v -1.307092 2.864590 1.307091
v -1.848506 2.864590 -0.000001
v -1.307089 2.864590 -1.307093
v 0.000001 2.571339 -1.614609
v 1.141702 2.571339 -1.141700
v 1.614610 2.571339 0.000000
v 1.141702 2.571339 1.141701
v 0.000000 2.571339 1.614609
v -1.141701 2.571339 1.141701
v -1.614608 2.571339 -0.000001
v -1.141698 2.571339 -1.141702
v 0.665629 6.445661 -0.665627
v 0.662929 6.298270 -0.662927
v 0.803788 6.123886 -0.803787
v 0.000001 4.826297 -0.639792
v 0.000001 5.921988 -0.702688
v 0.496877 5.921988 -0.496875
v 0.452402 4.826297 -0.452401
v -0.639791 4.826297 -0.000000
v -0.702687 5.921988 -0.000001
v -0.496874 5.921988 -0.496876
v -0.452400 4.826297 -0.452402
v 0.452402 4.826297 0.452401
v 0.496877 5.921988 0.496876
v 0.000001 5.921988 0.702688
v 0.000001 4.826297 0.639792
v 0.639793 4.826297 0.000000
v 0.702689 5.921988 0.000000
v -0.496875 5.921988 0.496876
v -0.452400 4.826297 0.452401
v 0.941341 6.445661 0.000001
v -0.803786 6.123886 -0.803788
v -0.662927 6.298270 -0.662928
v -0.665627 6.445661 -0.665627
v -0.803787 6.123886 0.803788
v -0.662927 6.298270 0.662928
v -0.665627 6.445661 0.665628
v -1.136726 6.123886 -0.000000
v -0.937521 6.298270 -0.000000
v -0.941339 6.445661 0.000000
v 0.000001 6.445661 -0.941339
v 0.000001 6.298269 -0.937521
v 0.000001 6.123886 -1.136727
v 0.803788 6.123886 0.803788
v 0.662929 6.298270 0.662928
v 0.665629 6.445661 0.665628
v 0.513630 6.917115 -0.513629
v 0.726382 6.917115 0.000001
v 0.513630 6.917115 0.513630
v 0.000001 6.917115 0.726382
v -0.513628 6.917115 0.513630
v -0.726380 6.917115 0.000001
v -0.513628 6.917115 -0.513629
v 0.000001 6.917115 -0.726381
v 0.000001 8.952406 -0.609625
v 0.006057 8.923806 -0.648052
v -0.076858 9.302382 -0.076858
v -0.082977 9.320349 0.000001
v -0.082954 9.296359 0.082956
v -0.050046 8.923805 0.629832
v 0.000001 8.554369 0.775494
v 0.096890 7.864697 0.968586
v -0.123563 7.017628 0.705148
v -0.108634 7.019947 0.712023
v -0.114233 7.436716 -0.833881
v 0.000001 7.569472 -0.920754
v 0.196262 7.749230 -0.893019
v 0.193108 7.295126 0.759025
v 0.000001 7.104475 0.782207
v 0.180419 7.864697 -0.933986
v -0.469578 9.050249 0.000001
v -0.470027 8.923805 -0.435847
v -0.470444 8.923805 0.434841
v -0.475353 7.864697 -0.811820
v -0.470232 8.881081 -0.470232
v -0.470693 8.879151 0.470695
v -0.476132 7.864697 0.811498
v -0.476577 7.635640 -0.743064
v -0.479197 7.258340 0.629561
vn 0.2028 -0.8480 -0.4896
vn 0.3827 0.0000 -0.9239
vn 0.2028 0.8480 -0.4896
vn 0.4896 -0.8480 -0.2028
vn 0.9239 -0.0000 -0.3827
vn 0.4896 0.8480 -0.2028
vn 0.4896 -0.8480 0.2028
vn 0.9239 -0.0000 0.3827
vn 0.4896 0.8480 0.2028
vn 0.2028 -0.8480 0.4896
vn 0.3827 -0.0000 0.9239
vn 0.2028 0.8480 0.4896
vn -0.2028 -0.8480 0.4896
vn -0.3827 -0.0000 0.9239
vn -0.2028 0.8480 0.4896
vn -0.4896 -0.8480 0.2028
vn -0.9239 -0.0000 0.3827
vn -0.4896 0.8480 0.2028
vn -0.4896 -0.8480 -0.2028
vn -0.9239 -0.0000 -0.3827
vn -0.4896 0.8480 -0.2028
vn -0.2028 -0.8480 -0.4896
vn -0.3827 0.0000 -0.9239
vn -0.2028 0.8480 -0.4896
vn 0.3690 -0.2654 -0.8907
vn -0.4155 -0.8932 0.1721
vn -0.1721 -0.8932 -0.4155
vn 0.8818 0.2982 -0.3653
vn 0.8907 -0.2654 -0.3690
vn 0.5573 0.7976 -0.2308
vn 0.9236 -0.0239 -0.3826
vn 0.8818 0.2982 0.3653
vn 0.8907 -0.2654 0.3690
vn 0.5573 0.7976 0.2308
vn 0.6354 0.7259 -0.2632
vn 0.3653 0.2982 0.8818
vn 0.3690 -0.2654 0.8907
vn 0.2308 0.7976 0.5573
vn 0.2904 0.6511 0.7012
vn -0.3690 -0.2654 0.8907
vn -0.2308 0.7976 0.5573
vn -0.9236 -0.0239 -0.3826
vn -0.8818 0.2982 0.3653
vn -0.8907 -0.2654 0.3690
vn 0.1721 -0.8932 -0.4155
vn -0.8818 0.2982 -0.3653
vn 0.2632 0.7259 0.6354
vn -0.8907 -0.2654 -0.3690
vn -0.5573 0.7976 -0.2308
vn 0.4155 -0.8932 0.1721
vn -0.3653 0.2982 -0.8818
vn -0.3690 -0.2654 -0.8907
vn -0.3081 -0.5932 0.7438
vn 0.9218 0.0673 -0.3818
vn -0.3081 -0.5932 -0.7438
vn -0.2704 0.7077 0.6527
vn -0.6604 0.6994 0.2735
vn 0.1809 0.8813 -0.4367
vn 0.3818 0.0673 -0.9218
vn 0.6527 0.7077 -0.2704
vn 0.2704 0.7077 0.6527
vn 0.2735 0.6994 -0.6604
vn 0.4367 0.8812 -0.1809
vn 0.7438 -0.5932 -0.3081
vn 0.7438 -0.5932 0.3081
vn 0.3081 -0.5932 0.7438
vn 0.6604 0.6994 0.2735
vn 0.4367 0.8812 0.1809
vn 0.9218 0.0673 0.3818
vn 0.3081 -0.5932 -0.7438
vn -0.7438 -0.5932 -0.3081
vn 0.3818 0.0673 0.9218
vn 0.1809 0.8812 0.4367
vn 0.0000 -1.0000 0.0000
vn -0.1721 -0.8932 0.4155
vn -0.7438 -0.5932 0.3081
vn -0.6527 0.7077 -0.2704
vn -0.3818 0.0673 0.9218
vn 0.3825 0.0311 0.9234
vn -0.1809 0.8813 0.4367
vn -0.3825 0.0311 0.9234
vn 0.9234 0.0311 -0.3825
vn 0.9234 0.0311 0.3825
vn 0.2704 0.7077 -0.6527
vn -0.9218 0.0673 0.3818
vn -0.4367 0.8812 0.1809
vn -0.3825 0.0311 -0.9234
vn -0.9234 0.0311 0.3825
vn 0.3825 0.0311 -0.9234
vn -0.9234 0.0311 -0.3825
vn 0.6527 0.7077 0.2704
vn -0.9218 0.0673 -0.3818
vn -0.4367 0.8812 -0.1809
vn -0.2735 0.6994 -0.6604
vn 0.6604 0.6994 -0.2735
vn -0.2704 0.7077 -0.6527
vn -0.3818 0.0673 -0.9218
vn -0.2735 0.6994 0.6604
vn -0.1809 0.8813 -0.4367
vn -0.6604 0.6994 -0.2735
vn -0.6527 0.7077 0.2704
vn 0.2735 0.6994 0.6604
vn 0.4155 -0.8932 -0.1721
vn 0.7012 0.6511 -0.2904
vn 0.3826 -0.0239 0.9236
vn -0.6354 0.7259 -0.2632
vn 0.1721 -0.8932 0.4155
vn -0.7012 0.6511 -0.2904
vn -0.4155 -0.8932 -0.1721
vn 0.9226 -0.0530 -0.3821
vn 0.3661 0.2915 0.8838
vn -0.9226 -0.0530 0.3821
vn -0.3821 -0.0530 -0.9226
vn -0.8838 0.2915 -0.3661
vn -0.8838 0.2915 0.3661
vn -0.3821 -0.0530 0.9226
vn 0.8838 0.2915 -0.3661
vn -0.3661 0.2915 -0.8838
vn 0.9226 -0.0530 0.3821
vn 0.8838 0.2915 0.3661
vn 0.3661 0.2915 -0.8838
vn 0.3821 -0.0530 0.9226
vn -0.3661 0.2915 0.8838
vn -0.9226 -0.0530 -0.3821
vn 0.3821 -0.0530 -0.9226
vn -0.2904 0.6511 0.7012
vn -0.3826 -0.0239 0.9236
vn -0.2632 0.7259 0.6354
vn 0.7012 0.6511 0.2904
vn 0.9236 -0.0239 0.3826
vn 0.6354 0.7259 0.2632
vn 0.2904 0.6511 -0.7012
vn 0.3826 -0.0239 -0.9236
vn 0.2632 0.7259 -0.6354
vn -0.2904 0.6511 -0.7012
vn -0.3826 -0.0239 -0.9236
vn -0.2632 0.7259 -0.6354
vn -0.7012 0.6511 0.2904
vn -0.9236 -0.0239 0.3826
vn -0.6354 0.7259 0.2632
vn -0.3821 -0.0545 -0.9225
vn -0.9225 -0.0545 -0.3821
vn -0.9225 -0.0545 0.3821
vn -0.3821 -0.0545 0.9225
vn 0.3821 -0.0545 0.9225
vn 0.9225 -0.0545 0.3821
vn 0.9225 -0.0545 -0.3821
vn 0.3821 -0.0545 -0.9225
vn 1.0000 -0.0052 0.0005
vn -0.6774 0.7097 0.1938
vn 0.5119 0.8281 0.2286
vn -0.2308 0.7976 -0.5573
vn -0.3653 0.2982 0.8818
vn 0.2308 0.7976 -0.5573
vn 0.3653 0.2982 -0.8818
vn -0.9876 -0.1509 -0.0434
vn -0.5573 0.7976 0.2308
vn -0.0946 0.9873 -0.1277
vn 0.1809 0.8812 -0.4367
vn 0.4367 0.8813 -0.1809
vn -0.1809 0.8812 0.4367
usemtl None
s off
f 18//1 17//1 2//1
f 16//2 2//2 17//2
f 16//3 9//3 1//3
f 18//4 2//4 4//4
f 1//5 4//5 2//5
f 1//6 9//6 3//6
f 18//7 4//7 6//7
f 3//8 6//8 4//8
f 3//9 9//9 5//9
f 18//10 6//10 8//10
f 5//11 8//11 6//11
f 5//12 9//12 7//12
f 18//13 8//13 11//13
f 7//14 11//14 8//14
f 7//15 9//15 10//15
f 18//16 11//16 13//16
f 10//17 13//17 11//17
f 10//18 9//18 12//18
f 18//19 13//19 15//19
f 12//20 15//20 13//20
f 12//21 9//21 14//21
f 18//22 15//22 17//22
f 14//23 17//23 15//23
f 14//24 9//24 16//24
f 156//25 22//25 136//25
f 127//26 118//26 124//26
f 132//27 110//27 121//27
f 21//28 25//28 22//28
f 22//29 137//29 136//29
f 21//30 34//30 24//30
f 30//31 101//31 120//31
f 24//32 28//32 25//32
f 25//33 138//33 137//33
f 24//34 34//34 27//34
f 33//35 102//35 30//35
f 27//36 31//36 150//36
f 157//37 158//37 139//37
f 27//38 34//38 31//38
f 37//39 29//39 32//39
f 152//40 168//40 140//40
f 31//41 148//41 149//41
f 123//42 128//42 129//42
f 165//43 38//43 39//43
f 35//44 141//44 140//44
f 106//45 132//45 103//45
f 38//46 161//46 164//46
f 44//47 134//47 41//47
f 141//48 42//48 142//48
f 38//49 160//49 161//49
f 113//50 33//50 133//50
f 42//51 164//51 163//51
f 142//52 167//52 154//52
f 89//53 98//53 97//53
f 63//54 66//54 64//54
f 100//55 85//55 93//55
f 72//56 89//56 70//56
f 99//57 82//57 98//57
f 62//58 48//58 63//58
f 62//59 64//59 61//59
f 66//60 86//60 64//60
f 70//61 88//61 68//61
f 94//62 77//62 93//62
f 63//63 50//63 65//63
f 86//64 95//64 94//64
f 87//65 96//65 95//65
f 88//66 97//66 96//66
f 96//67 79//67 95//67
f 65//68 52//68 67//68
f 65//69 68//69 66//69
f 85//70 94//70 93//70
f 91//71 100//71 99//71
f 68//72 69//72 70//72
f 52//73 69//73 67//73
f 59//74 47//74 51//74
f 118//75 44//75 124//75
f 90//76 99//76 98//76
f 92//77 74//77 76//77
f 69//78 72//78 70//78
f 51//79 81//79 53//79
f 54//80 71//80 69//80
f 81//81 55//81 53//81
f 78//82 49//82 47//82
f 79//83 51//83 49//83
f 86//84 61//84 64//84
f 71//85 74//85 72//85
f 56//86 73//86 71//86
f 84//87 45//87 59//87
f 82//88 57//88 55//88
f 77//89 47//89 45//89
f 83//90 59//90 57//90
f 68//91 87//91 66//91
f 73//92 76//92 74//92
f 58//93 75//93 73//93
f 77//94 100//94 93//94
f 95//95 78//95 94//95
f 85//96 76//96 61//96
f 75//97 61//97 76//97
f 82//98 97//98 98//98
f 60//99 62//99 75//99
f 100//100 83//100 99//100
f 91//101 72//101 74//101
f 97//102 80//102 96//102
f 117//103 103//103 33//103
f 120//104 23//104 26//104
f 37//105 134//105 135//105
f 122//106 127//106 128//106
f 114//107 133//107 44//107
f 43//108 129//108 40//108
f 121//109 109//109 127//109
f 107//110 117//110 116//110
f 52//111 115//111 54//111
f 119//112 109//112 108//112
f 111//113 105//113 104//113
f 108//114 60//114 58//114
f 119//115 58//115 56//115
f 115//116 118//116 119//116
f 107//117 50//117 48//117
f 111//118 46//118 60//118
f 116//119 113//119 112//119
f 116//120 52//120 50//120
f 46//121 107//121 48//121
f 112//122 114//122 115//122
f 115//123 56//123 54//123
f 108//124 110//124 111//124
f 107//125 105//125 106//125
f 36//126 37//126 32//126
f 126//127 41//127 37//127
f 125//128 44//128 41//128
f 135//129 26//129 29//129
f 134//130 120//130 135//130
f 133//131 30//131 134//131
f 101//132 20//132 23//132
f 102//133 130//133 101//133
f 103//134 131//134 102//134
f 20//135 123//135 43//135
f 130//136 122//136 123//136
f 131//137 121//137 122//137
f 40//138 126//138 36//138
f 129//139 125//139 126//139
f 128//140 124//140 125//140
f 142//141 20//141 43//141
f 141//142 43//142 40//142
f 140//143 40//143 36//143
f 139//144 36//144 32//144
f 138//145 32//145 29//145
f 26//146 138//146 29//146
f 136//147 26//147 23//147
f 143//148 23//148 20//148
f 164//149 160//149 165//149
f 158//150 157//150 19//150
f 168//151 19//151 154//151
f 146//49 147//49 34//49
f 144//152 146//152 34//152
f 166//153 165//153 35//153
f 149//153 150//153 31//153
f 144//154 21//154 145//154
f 159//155 21//155 22//155
f 145//156 159//156 150//156
f 162//157 160//157 38//157
f 147//157 148//157 34//157
f 153//158 19//158 152//158
f 16//2 1//2 2//2
f 1//5 3//5 4//5
f 3//8 5//8 6//8
f 5//11 7//11 8//11
f 7//14 10//14 11//14
f 10//17 12//17 13//17
f 12//20 14//20 15//20
f 14//23 16//23 17//23
f 136//25 143//25 155//25
f 156//25 159//25 22//25
f 136//25 155//25 156//25
f 127//26 109//26 118//26
f 132//27 105//27 110//27
f 21//28 24//28 25//28
f 22//29 25//29 137//29
f 30//31 102//31 101//31
f 24//32 27//32 28//32
f 25//33 28//33 138//33
f 33//35 103//35 102//35
f 151//36 28//36 150//36
f 28//36 27//36 150//36
f 139//37 138//37 157//37
f 138//37 28//37 157//37
f 28//37 151//37 157//37
f 37//39 135//39 29//39
f 139//40 158//40 153//40
f 139//40 153//40 152//40
f 166//40 35//40 168//40
f 35//40 140//40 168//40
f 139//40 152//40 140//40
f 31//41 34//41 148//41
f 123//42 122//42 128//42
f 39//43 35//43 165//43
f 165//43 162//43 38//43
f 35//44 39//44 141//44
f 106//45 105//45 132//45
f 42//46 39//46 164//46
f 39//46 38//46 164//46
f 44//47 133//47 134//47
f 141//48 39//48 42//48
f 113//50 117//50 33//50
f 143//52 142//52 154//52
f 142//52 42//52 167//52
f 42//52 163//52 167//52
f 154//52 155//52 143//52
f 89//53 90//53 98//53
f 63//54 65//54 66//54
f 100//55 92//55 85//55
f 72//56 90//56 89//56
f 99//57 83//57 82//57
f 62//159 46//159 48//159
f 62//59 63//59 64//59
f 66//60 87//60 86//60
f 70//61 89//61 88//61
f 94//62 78//62 77//62
f 63//160 48//160 50//160
f 86//64 87//64 95//64
f 87//65 88//65 96//65
f 88//66 89//66 97//66
f 96//67 80//67 79//67
f 65//68 50//68 52//68
f 65//69 67//69 68//69
f 85//70 86//70 94//70
f 91//71 92//71 100//71
f 68//72 67//72 69//72
f 52//73 54//73 69//73
f 51//74 53//74 55//74
f 55//74 57//74 51//74
f 57//74 59//74 51//74
f 59//74 45//74 47//74
f 47//74 49//74 51//74
f 118//75 114//75 44//75
f 90//76 91//76 99//76
f 92//77 91//77 74//77
f 69//78 71//78 72//78
f 51//79 80//79 81//79
f 54//161 56//161 71//161
f 81//81 82//81 55//81
f 78//82 79//82 49//82
f 79//83 80//83 51//83
f 86//84 85//84 61//84
f 71//85 73//85 74//85
f 56//86 58//86 73//86
f 84//87 77//87 45//87
f 82//88 83//88 57//88
f 77//89 78//89 47//89
f 83//90 84//90 59//90
f 68//91 88//91 87//91
f 73//92 75//92 76//92
f 58//93 60//93 75//93
f 77//94 84//94 100//94
f 95//95 79//95 78//95
f 85//96 92//96 76//96
f 75//97 62//97 61//97
f 82//98 81//98 97//98
f 60//99 46//99 62//99
f 100//100 84//100 83//100
f 91//101 90//101 72//101
f 97//102 81//102 80//102
f 117//103 106//103 103//103
f 120//104 101//104 23//104
f 37//105 41//105 134//105
f 122//106 121//106 127//106
f 114//107 113//107 133//107
f 43//108 123//108 129//108
f 121//109 110//109 109//109
f 107//110 106//110 117//110
f 52//111 112//111 115//111
f 119//112 118//112 109//112
f 111//113 110//113 105//113
f 108//114 111//114 60//114
f 119//115 108//115 58//115
f 115//116 114//116 118//116
f 107//117 116//117 50//117
f 111//118 104//118 46//118
f 116//119 117//119 113//119
f 116//120 112//120 52//120
f 46//121 104//121 107//121
f 112//122 113//122 114//122
f 115//123 119//123 56//123
f 108//124 109//124 110//124
f 107//125 104//125 105//125
f 36//126 126//126 37//126
f 126//127 125//127 41//127
f 125//128 124//128 44//128
f 135//129 120//129 26//129
f 134//130 30//130 120//130
f 133//131 33//131 30//131
f 101//132 130//132 20//132
f 102//133 131//133 130//133
f 103//134 132//134 131//134
f 20//135 130//135 123//135
f 130//136 131//136 122//136
f 131//137 132//137 121//137
f 40//138 129//138 126//138
f 129//139 128//139 125//139
f 128//140 127//140 124//140
f 142//141 143//141 20//141
f 141//142 142//142 43//142
f 140//143 141//143 40//143
f 139//144 140//144 36//144
f 138//145 139//145 32//145
f 26//146 137//146 138//146
f 136//147 137//147 26//147
f 143//148 136//148 23//148
f 166//149 168//149 167//149
f 167//149 163//149 166//149
f 163//149 164//149 165//149
f 164//149 161//149 160//149
f 160//149 162//149 165//149
f 165//149 166//149 163//149
f 155//150 154//150 156//150
f 154//150 19//150 157//150
f 156//150 154//150 157//150
f 19//150 153//150 158//150
f 154//151 167//151 168//151
f 168//151 152//151 19//151
f 144//154 34//154 21//154
f 159//155 145//155 21//155
f 159//156 156//156 150//156
f 156//156 157//156 151//156
f 151//156 150//156 156//156
f 150//156 149//156 144//156
f 149//156 148//156 144//156
f 150//156 144//156 145//156
f 148//156 147//156 146//156
f 146//156 144//156 148//156
