# Blender v2.92.0 OBJ File: 'chess_scene_pieces.blend'
# www.blender.org
mtllib king.mtl
o King
v -0.567233 8.739027 0.567234
v -1.590991 2.000000 1.590990
v -0.813829 4.195342 0.813828
v -0.969163 4.086490 0.969163
v -0.976751 3.939522 0.976750
v -1.585249 2.241033 1.585248
v -1.470479 3.119415 1.470478
v -1.284414 2.642756 1.284413
v -0.666975 8.095386 0.666975
v -0.556260 6.109009 0.556260
v -1.047546 8.297381 1.047546
v -0.738780 8.476805 0.738780
v -0.740706 8.659379 0.740707
v -0.568565 9.043755 0.568565
v -0.601154 9.098049 0.601155
v -0.573865 9.148155 0.573865
v -0.981711 10.320771 0.981712
v -0.190815 10.655428 0.190816
v -0.242009 10.797549 0.242010
v -0.100000 11.009564 0.025000
v -0.103243 10.957756 0.125698
v -0.101886 11.009564 0.101886
v -0.234428 11.020712 0.058607
v -0.100000 11.185690 0.025000
v -0.100000 11.479975 0.025000
v -0.240020 11.662787 0.025000
v -0.305107 11.120768 0.030515
v -0.305107 11.544897 0.030515
v 0.000000 8.739027 0.802189
v 0.567233 8.739027 0.567234
v 0.000000 8.659379 1.047518
v 0.000000 8.476805 1.044793
v 0.000000 8.297381 1.481454
v 0.000000 2.000000 2.250001
v 0.000000 4.195342 1.150928
v 1.590991 2.000000 1.590990
v 0.813829 4.195342 0.813828
v 0.000000 4.086490 1.370604
v 0.000000 3.939522 1.381333
v 0.969163 4.086490 0.969163
v 0.976751 3.939522 0.976750
v 0.000000 2.241033 2.241880
v 1.585249 2.241033 1.585248
v 0.000000 3.119415 2.079571
v 1.470479 3.119415 1.470478
v 0.000000 2.642756 1.816435
v 1.284414 2.642756 1.284413
v 0.000000 8.095386 0.943245
v 0.000000 6.109009 0.786670
v 0.666975 8.095386 0.666975
v 0.556260 6.109009 0.556260
v 1.047546 8.297381 1.047546
v 0.738780 8.476805 0.738780
v 0.740706 8.659379 0.740707
v 0.568565 9.043755 0.568565
v 0.601154 9.098049 0.601155
v 0.573865 9.148155 0.573865
v 0.000000 9.043755 0.804073
v 0.000000 9.098049 0.850161
v 0.000000 9.148155 0.811568
v 0.981711 10.320771 0.981712
v 0.000000 10.320771 1.388350
v 0.190815 10.655428 0.190816
v 0.000000 10.655428 0.269854
v 0.242009 10.797549 0.242010
v 0.000000 10.797549 0.342253
v 0.100000 11.009564 0.025000
v 0.000000 11.009564 0.144089
v 0.103243 10.957756 0.125698
v 0.000000 10.957756 0.168462
v 0.101886 11.009564 0.101886
v 0.000000 11.009564 0.025000
v 0.000000 11.020712 0.058607
v 0.234428 11.020712 0.058607
v 0.000000 11.185690 0.025000
v 0.100000 11.185690 0.025000
v 0.000000 11.479975 0.025000
v 0.100000 11.479975 0.025000
v 0.000000 11.662787 0.025000
v 0.240020 11.662787 0.025000
v 0.305107 11.120768 0.030515
v 0.305107 11.544897 0.030515
v -0.567233 8.739027 -0.567234
v -0.802189 8.739027 0.000000
v -1.590991 2.000000 -1.590990
v -0.813829 4.195342 -0.813828
v -2.250000 2.000000 0.000000
v -1.150928 4.195342 0.000000
v -0.969163 4.086490 -0.969163
v -0.976751 3.939522 -0.976750
v -1.370603 4.086490 0.000000
v -1.381333 3.939522 0.000000
v -1.585249 2.241033 -1.585248
v -2.241879 2.241033 0.000000
v -1.470479 3.119415 -1.470478
v -2.079570 3.119415 0.000000
v -1.284414 2.642756 -1.284413
v -1.816435 2.642756 0.000000
v -0.786670 6.109009 0.000000
v -0.943245 8.095386 0.000000
v -0.666975 8.095386 -0.666975
v -0.556260 6.109009 -0.556260
v -1.047546 8.297381 -1.047546
v -0.738780 8.476805 -0.738780
v -0.740706 8.659379 -0.740707
v -1.481454 8.297381 0.000000
v -1.044793 8.476805 0.000000
v -1.047517 8.659379 0.000000
v -0.804072 9.043755 0.000000
v -0.850160 9.098049 0.000000
v -0.811567 9.148155 0.000000
v -0.568565 9.043755 -0.568565
v -0.601154 9.098049 -0.601155
v -0.573865 9.148155 -0.573865
v -0.981711 10.320771 -0.981712
v -1.388349 10.320771 0.000000
v -0.269853 10.655428 0.000000
v -0.190815 10.655428 -0.190816
v -0.342252 10.797549 0.000000
v -0.242009 10.797549 -0.242010
v -0.100000 11.009564 -0.025000
v -0.144088 11.009564 0.000000
v -0.146007 10.957756 0.000000
v -0.103243 10.957756 -0.125698
v -0.101886 11.009564 -0.101886
v -0.100000 11.009564 0.000000
v -0.234428 11.020712 0.000000
v -0.234428 11.020712 -0.058607
v -0.100000 11.185690 0.000000
v -0.100000 11.185690 -0.025000
v -0.100000 11.479975 0.000000
v -0.100000 11.479975 -0.025000
v -0.240020 11.662787 0.000000
v -0.240020 11.662787 -0.025000
v -0.305107 11.120768 -0.030515
v -0.305107 11.120768 0.000000
v -0.305107 11.544897 -0.030515
v -0.305107 11.544897 0.000000
v 0.000000 8.739027 -0.802189
v 0.567233 8.739027 -0.567234
v 0.000000 8.659379 -1.047518
v 0.802189 8.739027 0.000000
v 0.000000 8.476805 -1.044793
v 0.000000 8.297381 -1.481454
v 0.000000 2.000000 -2.250001
v 0.000000 4.195342 -1.150928
v 1.590991 2.000000 -1.590990
v 0.813829 4.195342 -0.813828
v 2.250000 2.000000 0.000000
v 1.150928 4.195342 0.000000
v 0.000000 4.086490 -1.370604
v 0.000000 3.939522 -1.381333
v 0.969163 4.086490 -0.969163
v 0.976751 3.939522 -0.976750
v 1.370603 4.086490 0.000000
v 1.381333 3.939522 0.000000
v 0.000000 2.241033 -2.241880
v 1.585249 2.241033 -1.585248
v 2.241879 2.241033 0.000000
v 0.000000 3.119415 -2.079571
v 1.470479 3.119415 -1.470478
v 2.079570 3.119415 0.000000
v 0.000000 2.642756 -1.816435
v 1.284414 2.642756 -1.284413
v 1.816435 2.642756 0.000000
v 0.786670 6.109009 0.000000
v 0.943245 8.095386 0.000000
v 0.000000 8.095386 -0.943245
v 0.000000 6.109009 -0.786670
v 0.666975 8.095386 -0.666975
v 0.556260 6.109009 -0.556260
v 1.047546 8.297381 -1.047546
v 0.738780 8.476805 -0.738780
v 0.740706 8.659379 -0.740707
v 1.481454 8.297381 0.000000
v 1.044793 8.476805 0.000000
v 1.047517 8.659379 0.000000
v 0.804072 9.043755 0.000000
v 0.850160 9.098049 0.000000
v 0.811567 9.148155 0.000000
v 0.568565 9.043755 -0.568565
v 0.601154 9.098049 -0.601155
v 0.573865 9.148155 -0.573865
v 0.000000 9.043755 -0.804073
v 0.000000 9.098049 -0.850161
v 0.000000 9.148155 -0.811568
v 0.981711 10.320771 -0.981712
v 1.388349 10.320771 0.000000
v 0.000000 10.320771 -1.388350
v 0.269853 10.655428 0.000000
v 0.190815 10.655428 -0.190816
v 0.000000 10.655428 -0.269854
v 0.342252 10.797549 0.000000
v 0.242009 10.797549 -0.242010
v 0.000000 10.797549 -0.342253
v 0.100000 11.009564 -0.025000
v 0.000000 11.009564 -0.144089
v 0.144088 11.009564 0.000000
v 0.146007 10.957756 0.000000
v 0.000000 2.000000 0.000000
v 0.103243 10.957756 -0.125698
v 0.000000 10.957756 -0.168462
v 0.000000 11.009564 0.000000
v 0.101886 11.009564 -0.101886
v 0.000000 11.009564 0.000000
v 0.100000 11.009564 0.000000
v 0.000000 11.009564 -0.025000
v 0.000000 11.020712 -0.058607
v 0.000000 11.020712 0.000000
v 0.234428 11.020712 0.000000
v 0.234428 11.020712 -0.058607
v 0.000000 11.185690 -0.025000
v 0.000000 11.185690 0.000000
v 0.100000 11.185690 0.000000
v 0.100000 11.185690 -0.025000
v 0.000000 11.479975 -0.025000
v 0.000000 11.479975 0.000000
v 0.100000 11.479975 0.000000
v 0.100000 11.479975 -0.025000
v 0.000000 11.662787 -0.025000
v 0.000000 11.662787 0.000000
v 0.240020 11.662787 0.000000
v 0.240020 11.662787 -0.025000
v 0.305107 11.120768 -0.030515
v 0.305107 11.120768 0.000000
v 0.305107 11.544897 -0.030515
v 0.305107 11.544897 0.000000
vn -0.3477 -0.9265 0.1440
vn -0.7270 -0.6171 0.3011
vn -0.7527 0.5798 0.3118
vn -0.9239 -0.0057 0.3827
vn -0.3409 -0.4543 0.8230
vn -0.3008 0.6182 0.7262
vn -0.6604 0.6994 0.2735
vn -0.1440 -0.9265 0.3477
vn -0.8230 -0.4543 0.3409
vn -0.3818 0.0673 0.9218
vn -0.1809 0.8813 0.4367
vn -0.3825 0.0311 0.9234
vn -0.9218 0.0673 0.3818
vn -0.4367 0.8812 0.1809
vn -0.9234 0.0311 0.3825
vn -0.2735 0.6994 0.6604
vn -0.7262 0.6182 0.3008
vn -0.9214 -0.0726 0.3817
vn -0.9099 0.1732 0.3769
vn -0.3817 -0.0726 0.9214
vn -0.3769 0.1732 0.9099
vn -0.1269 0.9434 0.3063
vn -0.3826 -0.0138 0.9238
vn -0.1555 0.9137 0.3754
vn -0.3063 0.9434 0.1269
vn -0.9238 -0.0138 0.3826
vn -0.3754 0.9137 0.1555
vn -0.3827 -0.0057 0.9239
vn -0.3118 0.5798 0.7527
vn -0.3011 -0.6171 0.7270
vn -0.8411 -0.4137 0.3484
vn -0.3484 -0.4137 0.8411
vn -0.1179 0.9514 0.2846
vn -0.2846 0.9514 0.1179
vn -0.8359 -0.4258 0.3462
vn -0.3463 -0.4258 0.8359
vn -0.9233 0.0342 0.3825
vn -0.3510 0.3986 0.8473
vn -0.2703 0.7079 0.6526
vn -0.6118 0.7494 0.2534
vn 0.0000 -1.0000 0.0000
vn 0.0000 1.0000 0.0000
vn 0.0000 -0.9492 0.3148
vn -0.0826 -0.9966 0.0000
vn 0.3018 -0.9534 0.0000
vn -0.7752 0.6317 0.0000
vn 0.0000 0.1996 0.9799
vn 0.0000 0.0000 1.0000
vn -0.7939 -0.6081 0.0000
vn -1.0000 0.0000 0.0000
vn 0.0269 0.0000 0.9996
vn 0.3018 0.9534 0.0000
vn 0.3477 -0.9265 0.1440
vn 0.7270 -0.6171 0.3011
vn 0.7527 0.5798 0.3118
vn 0.9239 -0.0057 0.3827
vn 0.3409 -0.4543 0.8230
vn 0.3008 0.6182 0.7262
vn 0.6604 0.6994 0.2735
vn 0.1440 -0.9265 0.3477
vn 0.8230 -0.4543 0.3409
vn 0.3818 0.0673 0.9218
vn 0.1809 0.8813 0.4367
vn 0.3825 0.0311 0.9234
vn 0.9218 0.0673 0.3818
vn 0.4367 0.8813 0.1809
vn 0.9234 0.0311 0.3825
vn 0.2735 0.6994 0.6604
vn 0.7262 0.6182 0.3008
vn 0.9214 -0.0726 0.3817
vn 0.9099 0.1732 0.3769
vn 0.3817 -0.0726 0.9214
vn 0.3769 0.1732 0.9099
vn 0.1269 0.9434 0.3063
vn 0.3826 -0.0138 0.9238
vn 0.1555 0.9137 0.3754
vn 0.3063 0.9434 0.1269
vn 0.9238 -0.0138 0.3826
vn 0.3754 0.9137 0.1555
vn 0.3827 -0.0057 0.9239
vn 0.3118 0.5798 0.7527
vn 0.3011 -0.6171 0.7270
vn 0.8411 -0.4137 0.3484
vn 0.3484 -0.4137 0.8411
vn 0.1179 0.9514 0.2846
vn 0.2846 0.9514 0.1179
vn 0.8359 -0.4258 0.3462
vn 0.3463 -0.4258 0.8359
vn 0.9329 0.1703 0.3174
vn 0.3510 0.3986 0.8473
vn 0.2703 0.7079 0.6526
vn 0.6118 0.7494 0.2534
vn 0.0000 -0.9491 0.3149
vn 0.0826 -0.9966 0.0000
vn -0.3018 -0.9534 0.0000
vn 0.7752 0.6317 0.0000
vn 0.7939 -0.6081 0.0000
vn 1.0000 0.0000 0.0000
vn -0.0269 0.0000 0.9996
vn -0.3018 0.9534 0.0000
vn -0.3477 -0.9265 -0.1440
vn -0.7270 -0.6171 -0.3011
vn -0.7527 0.5798 -0.3118
vn -0.9239 -0.0057 -0.3827
vn -0.3409 -0.4543 -0.8230
vn -0.3008 0.6182 -0.7262
vn -0.6604 0.6994 -0.2735
vn -0.1440 -0.9265 -0.3477
vn -0.8230 -0.4543 -0.3409
vn -0.3818 0.0673 -0.9218
vn -0.1809 0.8813 -0.4367
vn -0.3825 0.0311 -0.9234
vn -0.9218 0.0673 -0.3818
vn -0.4367 0.8813 -0.1809
vn -0.9234 0.0311 -0.3825
vn -0.2735 0.6994 -0.6604
vn -0.7262 0.6182 -0.3008
vn -0.9214 -0.0726 -0.3817
vn -0.9099 0.1732 -0.3769
vn -0.3817 -0.0726 -0.9214
vn -0.3769 0.1732 -0.9099
vn -0.1269 0.9434 -0.3063
vn -0.3826 -0.0138 -0.9238
vn -0.1555 0.9137 -0.3754
vn -0.3063 0.9434 -0.1269
vn -0.9238 -0.0138 -0.3826
vn -0.3754 0.9137 -0.1555
vn -0.3827 -0.0057 -0.9239
vn -0.3118 0.5798 -0.7527
vn -0.3011 -0.6171 -0.7270
vn -0.8411 -0.4137 -0.3484
vn -0.3484 -0.4137 -0.8411
vn -0.1179 0.9514 -0.2846
vn -0.2846 0.9514 -0.1179
vn -0.8359 -0.4258 -0.3462
vn -0.3463 -0.4258 -0.8359
vn -0.9329 0.1703 -0.3174
vn -0.3510 0.3986 -0.8473
vn -0.2703 0.7079 -0.6526
vn -0.6118 0.7494 -0.2534
vn 0.0000 -0.9491 -0.3149
vn 0.0000 0.1996 -0.9799
vn 0.0000 0.0000 -1.0000
vn 0.0269 0.0000 -0.9996
vn 0.3477 -0.9265 -0.1440
vn 0.7270 -0.6171 -0.3011
vn 0.7527 0.5798 -0.3118
vn 0.9239 -0.0057 -0.3827
vn 0.3409 -0.4543 -0.8230
vn 0.3008 0.6182 -0.7262
vn 0.6604 0.6994 -0.2735
vn 0.1440 -0.9265 -0.3477
vn 0.8230 -0.4543 -0.3409
vn 0.3818 0.0673 -0.9218
vn 0.1809 0.8813 -0.4367
vn 0.3825 0.0311 -0.9234
vn 0.9218 0.0673 -0.3818
vn 0.4367 0.8812 -0.1809
vn 0.9234 0.0311 -0.3825
vn 0.2735 0.6994 -0.6604
vn 0.7262 0.6182 -0.3008
vn 0.9214 -0.0726 -0.3817
vn 0.9099 0.1732 -0.3769
vn 0.3817 -0.0726 -0.9214
vn 0.3769 0.1732 -0.9099
vn 0.1269 0.9434 -0.3063
vn 0.3826 -0.0138 -0.9238
vn 0.1555 0.9137 -0.3754
vn 0.3063 0.9434 -0.1269
vn 0.9238 -0.0138 -0.3826
vn 0.3754 0.9137 -0.1555
vn 0.3827 -0.0057 -0.9239
vn 0.3118 0.5798 -0.7527
vn 0.3011 -0.6171 -0.7270
vn 0.8411 -0.4137 -0.3484
vn 0.3484 -0.4137 -0.8411
vn 0.1179 0.9514 -0.2846
vn 0.2846 0.9514 -0.1179
vn 0.8359 -0.4258 -0.3462
vn 0.3463 -0.4258 -0.8359
vn 0.9233 0.0342 -0.3825
vn 0.3510 0.3986 -0.8473
vn 0.2703 0.7079 -0.6526
vn 0.6118 0.7494 -0.2534
vn 0.0000 -0.9492 -0.3148
vn -0.0269 0.0000 -0.9996
vn -0.1809 0.8812 0.4367
vn -0.4367 0.8813 0.1809
vn -0.3118 0.5798 0.7528
vn -0.8359 -0.4258 0.3463
vn -0.3462 -0.4258 0.8359
vn -0.9329 0.1703 0.3174
vn -0.6516 0.7254 0.2217
vn 0.3118 0.5798 0.7528
vn 0.8359 -0.4258 0.3463
vn 0.3462 -0.4258 0.8359
vn 0.9233 0.0342 0.3825
vn 0.6516 0.7254 0.2217
vn -0.3118 0.5798 -0.7528
vn -0.8359 -0.4258 -0.3463
vn -0.3462 -0.4258 -0.8359
vn -0.9233 0.0342 -0.3825
vn -0.6516 0.7254 -0.2217
vn 0.1809 0.8812 -0.4367
vn 0.4367 0.8813 -0.1809
vn 0.3118 0.5798 -0.7528
vn 0.8359 -0.4258 -0.3463
vn 0.3462 -0.4258 -0.8359
vn 0.9329 0.1703 -0.3174
vn 0.6516 0.7254 -0.2217
usemtl None
s off
f 106//1 9//1 11//1
f 15//2 109//2 14//2
f 16//3 110//3 15//3
f 14//4 84//4 1//4
f 46//5 7//5 8//5
f 7//6 39//6 5//6
f 94//7 8//7 98//7
f 11//8 48//8 33//8
f 8//9 96//9 98//9
f 39//10 4//10 5//10
f 35//11 4//11 38//11
f 34//12 6//12 2//12
f 5//13 91//13 92//13
f 3//14 91//14 4//14
f 6//15 87//15 2//15
f 6//16 46//16 8//16
f 96//17 5//17 92//17
f 10//18 100//18 99//18
f 10//19 88//19 3//19
f 49//20 9//20 10//20
f 49//21 3//21 35//21
f 13//22 29//22 1//22
f 13//23 32//23 31//23
f 11//24 32//24 12//24
f 108//25 1//25 84//25
f 108//26 12//26 13//26
f 106//27 12//27 107//27
f 58//28 1//28 29//28
f 60//29 15//29 59//29
f 59//30 14//30 58//30
f 16//31 116//31 111//31
f 60//32 17//32 16//32
f 62//33 18//33 17//33
f 116//34 18//34 117//34
f 18//35 119//35 117//35
f 64//36 19//36 18//36
f 123//37 22//37 122//37
f 21//38 68//38 22//38
f 66//39 21//39 19//39
f 19//40 123//40 119//40
f 200//41 2//41 87//41
f 20//42 122//42 22//42
f 72//42 22//42 68//42
f 20//43 73//43 23//43
f 20//44 127//44 126//44
f 24//45 136//45 129//45
f 127//46 24//46 129//46
f 73//47 24//47 23//47
f 25//48 79//48 26//48
f 75//48 25//48 24//48
f 26//42 221//42 133//42
f 131//49 26//49 133//49
f 27//50 138//50 136//50
f 25//51 27//51 24//51
f 25//52 138//52 28//52
f 52//53 167//53 175//53
f 178//54 56//54 55//54
f 179//55 57//55 56//55
f 142//56 55//56 30//56
f 46//57 45//57 44//57
f 39//58 45//58 41//58
f 47//59 159//59 165//59
f 52//60 48//60 50//60
f 47//61 162//61 45//61
f 41//62 38//62 39//62
f 40//63 35//63 38//63
f 34//64 43//64 42//64
f 156//65 40//65 41//65
f 155//66 37//66 40//66
f 149//67 43//67 36//67
f 46//68 43//68 47//68
f 41//69 162//69 156//69
f 167//70 51//70 166//70
f 37//71 166//71 51//71
f 50//72 49//72 51//72
f 37//73 49//73 35//73
f 29//74 54//74 30//74
f 54//75 32//75 53//75
f 32//76 52//76 53//76
f 30//77 177//77 142//77
f 54//78 176//78 177//78
f 176//79 52//79 175//79
f 30//80 58//80 29//80
f 56//81 60//81 59//81
f 55//82 59//82 58//82
f 188//83 57//83 180//83
f 61//84 60//84 57//84
f 63//85 62//85 61//85
f 188//86 63//86 61//86
f 193//87 63//87 190//87
f 65//88 64//88 63//88
f 199//89 71//89 69//89
f 69//90 68//90 70//90
f 69//91 66//91 65//91
f 199//92 65//92 193//92
f 200//41 36//41 34//41
f 72//50 209//50 205//50
f 67//42 198//42 206//42
f 72//42 71//42 67//42
f 205//48 68//48 72//48
f 67//93 73//93 72//93
f 210//94 67//94 206//94
f 225//95 76//95 214//95
f 210//96 76//96 74//96
f 75//50 209//50 73//50
f 76//47 73//47 74//47
f 78//48 79//48 77//48
f 77//50 213//50 75//50
f 78//48 75//48 76//48
f 221//42 80//42 222//42
f 218//97 80//97 78//97
f 79//50 217//50 77//50
f 227//98 81//98 225//98
f 81//99 78//99 76//99
f 78//100 227//100 218//100
f 103//101 100//101 106//101
f 109//102 113//102 112//102
f 110//103 114//103 113//103
f 84//104 112//104 83//104
f 163//105 95//105 160//105
f 152//106 95//106 90//106
f 97//107 94//107 98//107
f 103//108 168//108 101//108
f 97//109 96//109 95//109
f 90//110 151//110 152//110
f 89//111 146//111 151//111
f 145//112 93//112 157//112
f 92//113 89//113 90//113
f 91//114 86//114 89//114
f 87//115 93//115 85//115
f 163//116 93//116 97//116
f 90//117 96//117 92//117
f 100//118 102//118 99//118
f 86//119 99//119 102//119
f 101//120 169//120 102//120
f 86//121 169//121 146//121
f 139//122 105//122 83//122
f 105//123 143//123 104//123
f 143//124 103//124 104//124
f 83//125 108//125 84//125
f 105//126 107//126 108//126
f 107//127 103//127 106//127
f 83//128 184//128 139//128
f 113//129 186//129 185//129
f 112//130 185//130 184//130
f 116//131 114//131 111//131
f 115//132 186//132 114//132
f 118//133 189//133 115//133
f 116//134 118//134 115//134
f 119//135 118//135 117//135
f 120//136 192//136 118//136
f 123//137 125//137 124//137
f 124//138 197//138 202//138
f 124//139 195//139 120//139
f 123//140 120//140 119//140
f 200//41 85//41 145//41
f 121//42 122//42 126//42
f 207//42 125//42 121//42
f 126//48 203//48 205//48
f 209//48 129//48 127//48
f 121//141 208//141 207//141
f 209//48 126//48 205//48
f 127//44 121//44 126//44
f 136//45 130//45 129//45
f 127//46 130//46 128//46
f 130//142 208//142 128//142
f 132//143 220//143 216//143
f 132//143 212//143 130//143
f 217//48 129//48 213//48
f 221//42 134//42 133//42
f 221//48 131//48 217//48
f 131//49 134//49 132//49
f 138//50 135//50 136//50
f 138//48 129//48 131//48
f 135//144 132//144 130//144
f 132//52 138//52 131//52
f 175//145 170//145 172//145
f 182//146 178//146 181//146
f 183//147 179//147 182//147
f 181//148 142//148 140//148
f 163//149 161//149 164//149
f 161//150 152//150 154//150
f 159//151 164//151 165//151
f 172//152 168//152 144//152
f 164//153 162//153 165//153
f 152//154 153//154 154//154
f 146//155 153//155 151//155
f 145//156 158//156 147//156
f 154//157 155//157 156//157
f 148//158 155//158 153//158
f 158//159 149//159 147//159
f 158//160 163//160 164//160
f 162//161 154//161 156//161
f 171//162 167//162 166//162
f 171//163 150//163 148//163
f 169//164 170//164 171//164
f 169//165 148//165 146//165
f 174//166 139//166 140//166
f 174//167 143//167 141//167
f 172//168 143//168 173//168
f 177//169 140//169 142//169
f 177//170 173//170 174//170
f 175//171 173//171 176//171
f 184//172 140//172 139//172
f 186//173 182//173 185//173
f 185//174 181//174 184//174
f 183//175 188//175 180//175
f 186//176 187//176 183//176
f 189//177 191//177 187//177
f 188//178 191//178 190//178
f 191//179 193//179 190//179
f 192//180 194//180 191//180
f 199//181 204//181 198//181
f 201//182 197//182 204//182
f 195//183 201//183 194//183
f 194//184 199//184 193//184
f 200//41 147//41 149//41
f 207//50 209//50 208//50
f 196//42 198//42 204//42
f 207//42 204//42 197//42
f 205//48 197//48 203//48
f 206//48 203//48 198//48
f 209//48 214//48 213//48
f 196//185 208//185 211//185
f 206//48 209//48 205//48
f 196//94 210//94 206//94
f 215//95 225//95 214//95
f 210//96 215//96 214//96
f 209//50 212//50 208//50
f 208//142 215//142 211//142
f 219//143 220//143 223//143
f 213//50 216//50 212//50
f 212//143 219//143 215//143
f 214//48 217//48 213//48
f 223//42 221//42 222//42
f 218//48 221//48 217//48
f 218//97 223//97 222//97
f 217//50 220//50 216//50
f 224//98 227//98 225//98
f 214//48 227//48 218//48
f 219//186 224//186 215//186
f 219//100 227//100 226//100
f 106//1 100//1 9//1
f 15//2 110//2 109//2
f 16//3 111//3 110//3
f 14//4 109//4 84//4
f 46//5 44//5 7//5
f 7//6 44//6 39//6
f 94//7 6//7 8//7
f 11//8 9//8 48//8
f 8//9 7//9 96//9
f 39//10 38//10 4//10
f 35//187 3//187 4//187
f 34//12 42//12 6//12
f 5//13 4//13 91//13
f 3//188 88//188 91//188
f 6//15 94//15 87//15
f 6//16 42//16 46//16
f 96//17 7//17 5//17
f 10//18 9//18 100//18
f 10//19 99//19 88//19
f 49//20 48//20 9//20
f 49//21 10//21 3//21
f 13//22 31//22 29//22
f 13//23 12//23 32//23
f 11//24 33//24 32//24
f 108//25 13//25 1//25
f 108//26 107//26 12//26
f 106//27 11//27 12//27
f 58//28 14//28 1//28
f 60//189 16//189 15//189
f 59//30 15//30 14//30
f 16//31 17//31 116//31
f 60//32 62//32 17//32
f 62//33 64//33 18//33
f 116//34 17//34 18//34
f 18//190 19//190 119//190
f 64//191 66//191 19//191
f 123//192 21//192 22//192
f 21//38 70//38 68//38
f 66//39 70//39 21//39
f 19//193 21//193 123//193
f 200//41 34//41 2//41
f 20//42 126//42 122//42
f 72//42 20//42 22//42
f 20//93 72//93 73//93
f 20//44 23//44 127//44
f 24//45 27//45 136//45
f 127//46 23//46 24//46
f 73//47 75//47 24//47
f 25//48 77//48 79//48
f 75//48 77//48 25//48
f 26//42 79//42 221//42
f 131//49 25//49 26//49
f 27//50 28//50 138//50
f 25//51 28//51 27//51
f 25//52 131//52 138//52
f 52//53 50//53 167//53
f 178//54 179//54 56//54
f 179//55 180//55 57//55
f 142//56 178//56 55//56
f 46//57 47//57 45//57
f 39//58 44//58 45//58
f 47//59 43//59 159//59
f 52//60 33//60 48//60
f 47//61 165//61 162//61
f 41//62 40//62 38//62
f 40//63 37//63 35//63
f 34//64 36//64 43//64
f 156//65 155//65 40//65
f 155//66 150//66 37//66
f 149//67 159//67 43//67
f 46//68 42//68 43//68
f 41//69 45//69 162//69
f 167//70 50//70 51//70
f 37//71 150//71 166//71
f 50//72 48//72 49//72
f 37//73 51//73 49//73
f 29//74 31//74 54//74
f 54//75 31//75 32//75
f 32//76 33//76 52//76
f 30//77 54//77 177//77
f 54//78 53//78 176//78
f 176//79 53//79 52//79
f 30//80 55//80 58//80
f 56//194 57//194 60//194
f 55//82 56//82 59//82
f 188//83 61//83 57//83
f 61//84 62//84 60//84
f 63//85 64//85 62//85
f 188//86 190//86 63//86
f 193//195 65//195 63//195
f 65//196 66//196 64//196
f 199//197 198//197 71//197
f 69//90 71//90 68//90
f 69//91 70//91 66//91
f 199//198 69//198 65//198
f 200//41 149//41 36//41
f 72//50 73//50 209//50
f 67//42 71//42 198//42
f 72//42 68//42 71//42
f 205//48 203//48 68//48
f 67//43 74//43 73//43
f 210//94 74//94 67//94
f 225//95 81//95 76//95
f 210//96 214//96 76//96
f 75//50 213//50 209//50
f 76//47 75//47 73//47
f 78//48 80//48 79//48
f 77//50 217//50 213//50
f 78//48 77//48 75//48
f 221//42 79//42 80//42
f 218//97 222//97 80//97
f 79//50 221//50 217//50
f 227//98 82//98 81//98
f 81//99 82//99 78//99
f 78//100 82//100 227//100
f 103//101 101//101 100//101
f 109//102 110//102 113//102
f 110//103 111//103 114//103
f 84//104 109//104 112//104
f 163//105 97//105 95//105
f 152//106 160//106 95//106
f 97//107 93//107 94//107
f 103//108 144//108 168//108
f 97//109 98//109 96//109
f 90//110 89//110 151//110
f 89//111 86//111 146//111
f 145//112 85//112 93//112
f 92//113 91//113 89//113
f 91//114 88//114 86//114
f 87//115 94//115 93//115
f 163//116 157//116 93//116
f 90//117 95//117 96//117
f 100//118 101//118 102//118
f 86//119 88//119 99//119
f 101//120 168//120 169//120
f 86//121 102//121 169//121
f 139//122 141//122 105//122
f 105//123 141//123 143//123
f 143//124 144//124 103//124
f 83//125 105//125 108//125
f 105//126 104//126 107//126
f 107//127 104//127 103//127
f 83//128 112//128 184//128
f 113//199 114//199 186//199
f 112//130 113//130 185//130
f 116//131 115//131 114//131
f 115//132 189//132 186//132
f 118//133 192//133 189//133
f 116//134 117//134 118//134
f 119//200 120//200 118//200
f 120//201 195//201 192//201
f 123//202 122//202 125//202
f 124//138 125//138 197//138
f 124//139 202//139 195//139
f 123//203 124//203 120//203
f 200//41 87//41 85//41
f 121//42 125//42 122//42
f 207//42 197//42 125//42
f 126//48 122//48 203//48
f 209//48 213//48 129//48
f 121//185 128//185 208//185
f 209//48 127//48 126//48
f 127//44 128//44 121//44
f 136//45 135//45 130//45
f 127//46 129//46 130//46
f 130//142 212//142 208//142
f 132//143 134//143 220//143
f 132//143 216//143 212//143
f 217//48 131//48 129//48
f 221//42 220//42 134//42
f 221//48 133//48 131//48
f 131//49 133//49 134//49
f 138//50 137//50 135//50
f 138//48 136//48 129//48
f 135//144 137//144 132//144
f 132//52 137//52 138//52
f 175//145 167//145 170//145
f 182//146 179//146 178//146
f 183//147 180//147 179//147
f 181//148 178//148 142//148
f 163//149 160//149 161//149
f 161//150 160//150 152//150
f 159//151 158//151 164//151
f 172//152 170//152 168//152
f 164//153 161//153 162//153
f 152//154 151//154 153//154
f 146//204 148//204 153//204
f 145//156 157//156 158//156
f 154//157 153//157 155//157
f 148//205 150//205 155//205
f 158//159 159//159 149//159
f 158//160 157//160 163//160
f 162//161 161//161 154//161
f 171//162 170//162 167//162
f 171//163 166//163 150//163
f 169//164 168//164 170//164
f 169//165 171//165 148//165
f 174//166 141//166 139//166
f 174//167 173//167 143//167
f 172//168 144//168 143//168
f 177//169 174//169 140//169
f 177//170 176//170 173//170
f 175//171 172//171 173//171
f 184//172 181//172 140//172
f 186//206 183//206 182//206
f 185//174 182//174 181//174
f 183//175 187//175 188//175
f 186//176 189//176 187//176
f 189//177 192//177 191//177
f 188//178 187//178 191//178
f 191//207 194//207 193//207
f 192//208 195//208 194//208
f 199//209 201//209 204//209
f 201//182 202//182 197//182
f 195//183 202//183 201//183
f 194//210 201//210 199//210
f 200//41 145//41 147//41
f 207//50 205//50 209//50
f 196//42 206//42 198//42
f 207//42 196//42 204//42
f 205//48 207//48 197//48
f 206//48 205//48 203//48
f 209//48 210//48 214//48
f 196//141 207//141 208//141
f 206//48 210//48 209//48
f 196//94 211//94 210//94
f 215//95 224//95 225//95
f 210//96 211//96 215//96
f 209//50 213//50 212//50
f 208//142 212//142 215//142
f 219//143 216//143 220//143
f 213//50 217//50 216//50
f 212//143 216//143 219//143
f 214//48 218//48 217//48
f 223//42 220//42 221//42
f 218//48 222//48 221//48
f 218//97 219//97 223//97
f 217//50 221//50 220//50
f 224//98 226//98 227//98
f 214//48 225//48 227//48
f 219//186 226//186 224//186
f 219//100 218//100 227//100
