# Blender v2.92.0 OBJ File: 'chess_scene_pieces.blend'
# www.blender.org
mtllib queen.mtl
o Queen
v 0.000000 9.550341 -0.177502
v 0.000000 9.212714 -0.287203
v 0.125512 9.550341 -0.125513
v 0.203083 9.399349 -0.203084
v 0.203083 9.212714 -0.203083
v 0.125512 9.061723 -0.125513
v 0.177501 9.550341 -0.000001
v 0.287203 9.399349 -0.000001
v 0.287203 9.212714 -0.000001
v 0.177501 9.061723 -0.000001
v 0.125512 9.550341 0.125511
v 0.203083 9.399349 0.203082
v 0.203083 9.212714 0.203082
v 0.125512 9.061723 0.125511
v 0.000000 9.550341 0.177500
v 0.000000 9.399349 0.287202
v 0.000000 9.212714 0.287202
v -0.000000 9.608014 -0.000001
v -0.125512 9.550341 0.125511
v -0.203083 9.399349 0.203082
v -0.203083 9.212714 0.203082
v -0.177501 9.550341 -0.000001
v -0.287203 9.399349 -0.000001
v -0.287203 9.212714 -0.000001
v -0.125512 9.550341 -0.125513
v -0.203083 9.399349 -0.203083
v -0.203083 9.212714 -0.203083
v -0.125512 9.061723 -0.125513
v 0.000000 9.399349 -0.287203
v 0.000000 9.061723 -0.177502
v -0.000000 7.587529 -0.713057
v 0.504207 7.587529 -0.504207
v 0.713057 7.587529 0.000000
v 0.504207 7.587529 0.504207
v 0.928704 7.354441 -0.000000
v -0.000000 7.587529 0.713057
v 1.316848 7.194954 -0.000000
v -0.504207 7.587529 0.504207
v -0.000000 7.516730 0.931126
v -0.713057 7.587529 -0.000000
v -0.000000 7.354441 0.928704
v -0.504207 7.587529 -0.504207
v -0.000000 7.194954 1.316847
v -0.000000 2.000000 -2.000000
v 0.000000 3.664434 -1.023047
v 1.414214 2.000000 -1.414214
v 0.723403 3.664434 -0.723404
v 2.000000 2.000000 -0.000000
v 1.023047 3.664434 -0.000000
v 1.414214 2.000000 1.414214
v 0.723403 3.664434 0.723403
v -0.000001 2.000000 2.000000
v -0.000000 3.664434 1.023046
v -1.414215 2.000000 1.414213
v -0.723404 3.664434 0.723402
v -2.000000 2.000000 -0.000002
v -1.023047 3.664434 -0.000001
v -1.414212 2.000000 -1.414216
v -0.723402 3.664434 -0.723405
v 0.000000 3.437039 -1.227852
v 0.000000 3.567677 -1.218314
v 0.861478 3.567677 -0.861478
v 0.868222 3.437039 -0.868223
v 1.218314 3.567677 -0.000000
v 1.227852 3.437039 -0.000000
v 0.861478 3.567677 0.861478
v 0.868222 3.437039 0.868222
v -0.000000 3.567677 1.218314
v -0.000000 3.437039 1.227851
v -0.861479 3.567677 0.861477
v -0.868223 3.437039 0.868221
v -1.218314 3.567677 -0.000002
v -1.227852 3.437039 -0.000002
v -0.861477 3.567677 -0.861480
v -0.868221 3.437039 -0.868224
v -0.000000 2.214252 -1.992782
v 1.409109 2.214252 -1.409109
v 1.992782 2.214252 -0.000000
v 1.409109 2.214252 1.409109
v -0.000001 2.214252 1.992782
v -1.409110 2.214252 1.409108
v -1.992782 2.214252 -0.000002
v -1.409108 2.214252 -1.409111
v -0.000000 2.864590 -1.848507
v 1.307091 2.864590 -1.307092
v 1.848507 2.864590 -0.000000
v 1.307091 2.864590 1.307092
v -0.000001 2.864590 1.848507
v -1.307093 2.864590 1.307091
v -1.848507 2.864590 -0.000002
v -1.307090 2.864590 -1.307093
v -0.000000 2.571338 -1.614609
v 1.141701 2.571338 -1.141701
v 1.614609 2.571338 -0.000000
v 1.141701 2.571338 1.141701
v -0.000001 2.571338 1.614609
v -1.141702 2.571338 1.141700
v -1.614609 2.571338 -0.000002
v -1.141699 2.571338 -1.141703
v 0.658406 7.516730 -0.658406
v 0.656693 7.354441 -0.656693
v 0.931152 7.194954 -0.931152
v 0.000000 4.826296 -0.639792
v 0.000000 7.015402 -0.702689
v 0.496876 7.015402 -0.496876
v 0.452401 4.826296 -0.452402
v -0.639792 4.826296 -0.000001
v -0.702688 7.015402 -0.000001
v -0.496875 7.015402 -0.496877
v -0.452400 4.826296 -0.452402
v 0.452401 4.826296 0.452401
v 0.496876 7.015402 0.496875
v -0.000000 7.015402 0.702688
v -0.000000 4.826296 0.639791
v 0.639792 4.826296 -0.000001
v 0.702688 7.015402 -0.000001
v -0.496876 7.015402 0.496875
v -0.452401 4.826296 0.452400
v 0.931126 7.516730 -0.000000
v -0.931151 7.194954 -0.931153
v -0.656693 7.354441 -0.656694
v -0.658405 7.516730 -0.658406
v -0.931152 7.194954 0.931151
v -0.656693 7.354441 0.656693
v -0.658406 7.516730 0.658406
v -1.316848 7.194954 -0.000001
v -0.928704 7.354441 -0.000001
v -0.931126 7.516730 -0.000000
v -0.000000 7.516729 -0.931126
v -0.000000 7.354441 -0.928705
v 0.000000 7.194954 -1.316848
v 0.931152 7.194954 0.931152
v 0.656693 7.354441 0.656693
v 0.658406 7.516730 0.658406
v -0.000000 9.061724 0.177501
v -0.125512 9.061724 0.125512
v -0.177501 9.061724 -0.000000
v -0.000000 7.858397 -0.714731
v -0.000000 7.906659 -0.755698
v -0.000000 7.951197 -0.721393
v -0.505391 7.858397 -0.505391
v -0.534359 7.906659 -0.534359
v -0.510102 7.951197 -0.510102
v -0.714731 7.858397 -0.000000
v -0.755698 7.906659 -0.000000
v -0.721393 7.951197 -0.000000
v -0.505391 7.858397 0.505391
v -0.534359 7.906659 0.534359
v -0.510102 7.951197 0.510102
v -0.000000 7.858397 0.714731
v -0.000000 7.906659 0.755698
v -0.000000 7.951197 0.721393
v 0.505391 7.858397 0.505391
v 0.534359 7.906659 0.534359
v 0.510102 7.951197 0.510102
v 0.714731 7.858397 0.000000
v 0.755698 7.906659 -0.000000
v 0.721393 7.951197 -0.000000
v 0.505391 7.858397 -0.505391
v 0.534359 7.906659 -0.534359
v 0.510102 7.951197 -0.510102
v -0.000000 8.831360 1.222238
v -0.864253 8.831360 0.864253
v -0.864253 8.831360 -0.864253
v -0.000000 8.831360 -1.222238
v 0.864253 8.831360 0.864253
v -1.222238 8.831360 -0.000000
v 0.864253 8.831360 -0.864253
v 1.222238 8.831360 0.000000
v 0.696260 8.519625 -0.696261
v 0.984661 8.519625 0.000000
v 0.696260 8.519625 0.696261
v -0.000000 8.519625 0.984661
v -0.696261 8.519625 0.696261
v -0.984661 8.519625 -0.000000
v -0.696261 8.519625 -0.696260
v -0.000000 8.519625 -0.984661
v 0.428983 8.954010 -0.428983
v -0.000000 8.954010 -0.606673
v -0.428983 8.954010 -0.428983
v -0.606673 8.954010 -0.000000
v -0.428983 8.954010 0.428983
v -0.000000 8.954010 0.606673
v 0.428983 8.954010 0.428982
v 0.606673 8.954010 -0.000000
v 0.793423 8.655327 -0.793423
v -0.793423 8.655327 -0.793423
v -1.122069 8.655327 -0.000000
v -0.793423 8.655327 0.793423
v -0.000000 8.655327 1.122069
v -0.000000 8.655327 -1.122069
v 1.122069 8.655327 0.000000
v 0.793423 8.655327 0.793423
v -0.763458 8.644320 -0.763457
v -0.000000 8.644320 -1.079692
v -1.079692 8.644320 -0.000000
v 0.763457 8.644320 -0.763457
v 1.079692 8.644320 0.000000
v 0.763457 8.644320 0.763457
v -0.000000 8.644320 1.079692
v -0.763458 8.644320 0.763457
v -0.396711 8.655327 -0.957746
v 0.957746 8.655327 0.396711
v 0.396711 8.655327 0.957746
v 0.957746 8.655327 -0.396711
v -0.957746 8.655327 0.396711
v -0.957746 8.655327 -0.396711
v -0.396711 8.655327 0.957746
v 0.396711 8.655327 -0.957746
v -0.921575 8.644320 0.381729
v 0.381729 8.644320 -0.921575
v 0.921575 8.644320 0.381729
v -0.381729 8.644320 0.921575
v 0.381729 8.644320 0.921575
v 0.921575 8.644320 -0.381729
v -0.921575 8.644320 -0.381729
v -0.381729 8.644320 -0.921574
vn 0.3177 -0.5573 -0.7671
vn 0.3177 0.5573 -0.7671
vn 0.3827 0.0000 -0.9239
vn 0.1270 0.9434 -0.3065
vn 0.9239 -0.0000 -0.3827
vn 0.3065 0.9434 -0.1270
vn 0.7671 -0.5573 -0.3177
vn 0.7671 0.5573 -0.3177
vn 0.9239 -0.0000 0.3827
vn 0.3065 0.9434 0.1270
vn 0.7671 -0.5573 0.3177
vn 0.7671 0.5573 0.3177
vn 0.3827 -0.0000 0.9239
vn 0.1270 0.9434 0.3065
vn 0.3177 -0.5573 0.7671
vn 0.3177 0.5573 0.7671
vn -0.3827 0.0000 0.9239
vn -0.1270 0.9434 0.3065
vn -0.3177 -0.5573 0.7671
vn -0.3177 0.5573 0.7671
vn -0.9239 0.0000 0.3827
vn -0.3065 0.9434 0.1270
vn -0.7671 -0.5573 0.3177
vn -0.7671 0.5573 0.3177
vn -0.2983 0.6266 -0.7200
vn -0.9239 0.0000 -0.3827
vn -0.3065 0.9434 -0.1270
vn -0.7671 -0.5573 -0.3177
vn -0.7671 0.5573 -0.3177
vn -0.3827 0.0000 -0.9239
vn -0.1270 0.9434 -0.3065
vn -0.3177 -0.5573 -0.7671
vn -0.3177 0.5573 -0.7671
vn -0.3011 -0.6171 -0.7270
vn -0.2787 -0.9534 0.1155
vn -0.1155 -0.9534 -0.2787
vn 0.3129 0.5757 0.7554
vn -0.3118 0.5798 -0.7528
vn 0.9238 -0.0138 -0.3826
vn -0.3827 -0.0057 -0.9239
vn -0.7270 -0.6171 -0.3011
vn -0.7527 0.5798 -0.3118
vn 0.3754 0.9137 -0.1555
vn -0.9239 -0.0057 -0.3827
vn -0.7270 -0.6171 0.3011
vn -0.7527 0.5798 0.3118
vn 0.1269 0.9434 0.3063
vn 0.7270 -0.6171 0.3011
vn -0.9239 -0.0057 0.3827
vn -0.9238 -0.0138 -0.3826
vn 0.3827 -0.0057 0.9239
vn 0.7527 0.5798 0.3118
vn 0.1155 -0.9534 -0.2787
vn 0.9239 -0.0057 0.3827
vn 0.1555 0.9137 0.3754
vn 0.9239 -0.0057 -0.3827
vn 0.7270 -0.6171 -0.3011
vn 0.2787 -0.9534 0.1155
vn 0.3118 0.5798 -0.7528
vn 0.3011 -0.6171 -0.7270
vn -0.3081 -0.5932 0.7438
vn 0.9218 0.0673 -0.3818
vn -0.3081 -0.5932 -0.7438
vn -0.2704 0.7077 0.6527
vn -0.6604 0.6994 0.2735
vn 0.1809 0.8813 -0.4367
vn 0.3818 0.0673 -0.9218
vn 0.6527 0.7077 -0.2704
vn 0.2704 0.7077 0.6527
vn 0.2735 0.6994 -0.6604
vn 0.4367 0.8813 -0.1809
vn 0.7438 -0.5932 -0.3081
vn 0.7438 -0.5932 0.3081
vn 0.3081 -0.5932 0.7438
vn 0.6604 0.6994 0.2735
vn 0.4367 0.8813 0.1809
vn 0.9218 0.0673 0.3818
vn 0.3081 -0.5932 -0.7438
vn -0.7438 -0.5932 -0.3081
vn 0.3818 0.0673 0.9218
vn 0.1809 0.8813 0.4367
vn 0.0000 -1.0000 0.0000
vn -0.1155 -0.9534 0.2787
vn -0.7438 -0.5932 0.3081
vn -0.6527 0.7077 -0.2704
vn -0.3818 0.0673 0.9218
vn 0.3825 0.0311 0.9234
vn -0.1809 0.8813 0.4367
vn -0.3825 0.0311 0.9234
vn 0.9234 0.0311 -0.3825
vn 0.9234 0.0311 0.3825
vn 0.2704 0.7077 -0.6527
vn -0.9218 0.0673 0.3818
vn -0.4367 0.8813 0.1809
vn -0.3825 0.0311 -0.9234
vn -0.9234 0.0311 0.3825
vn 0.3825 0.0311 -0.9234
vn -0.9234 0.0311 -0.3825
vn 0.6527 0.7077 0.2704
vn -0.9218 0.0673 -0.3818
vn -0.4367 0.8813 -0.1809
vn -0.2735 0.6994 -0.6604
vn 0.6604 0.6994 -0.2735
vn -0.2704 0.7077 -0.6527
vn -0.3818 0.0673 -0.9218
vn -0.2735 0.6994 0.6604
vn -0.1809 0.8813 -0.4367
vn -0.6604 0.6994 -0.2735
vn -0.6527 0.7077 0.2704
vn 0.2735 0.6994 0.6604
vn 0.2787 -0.9534 -0.1155
vn 0.3063 0.9434 -0.1269
vn 0.3826 -0.0138 0.9238
vn -0.3754 0.9137 -0.1555
vn 0.1155 -0.9534 0.2787
vn -0.3063 0.9434 -0.1269
vn -0.2787 -0.9534 -0.1155
vn 0.9236 -0.0265 -0.3825
vn 0.3661 0.2915 0.8838
vn -0.9236 -0.0265 0.3825
vn -0.3825 -0.0265 -0.9236
vn -0.8838 0.2915 -0.3661
vn -0.8838 0.2915 0.3661
vn -0.3825 -0.0265 0.9236
vn 0.8838 0.2915 -0.3661
vn -0.3661 0.2915 -0.8838
vn 0.9236 -0.0265 0.3825
vn 0.8838 0.2915 0.3661
vn 0.3661 0.2915 -0.8838
vn 0.3825 -0.0265 0.9236
vn -0.3661 0.2915 0.8838
vn -0.9236 -0.0265 -0.3825
vn 0.3825 -0.0265 -0.9236
vn -0.1269 0.9434 0.3063
vn -0.3826 -0.0138 0.9238
vn -0.1555 0.9137 0.3754
vn 0.3063 0.9434 0.1269
vn 0.9238 -0.0138 0.3826
vn 0.3754 0.9137 0.1555
vn 0.1269 0.9434 -0.3063
vn 0.3826 -0.0138 -0.9238
vn 0.1555 0.9137 -0.3754
vn -0.1269 0.9434 -0.3063
vn -0.3826 -0.0138 -0.9238
vn -0.1555 0.9137 -0.3754
vn -0.3063 0.9434 0.1269
vn -0.9238 -0.0138 0.3826
vn -0.3754 0.9137 0.1555
vn 0.1736 0.9198 -0.3518
vn -0.3387 -0.4653 -0.8178
vn -0.8178 -0.4653 -0.3387
vn 0.1260 0.9198 0.3715
vn 0.3518 0.9198 0.1736
vn -0.1736 0.9198 0.3518
vn -0.3827 -0.0057 0.9239
vn 0.3118 0.5798 0.7528
vn 0.3011 -0.6171 0.7270
vn -0.3118 0.5798 0.7528
vn -0.1736 0.9198 -0.3518
vn 0.3827 -0.0057 -0.9239
vn 0.7527 0.5798 -0.3118
vn -0.3011 -0.6171 0.7270
vn 0.2983 0.6266 -0.7200
vn 0.7554 0.5757 0.3129
vn -0.7554 0.5757 0.3129
vn -0.3129 0.5757 -0.7554
vn 0.3129 0.5757 -0.7554
vn -0.7554 0.5757 -0.3129
vn -0.3129 0.5757 0.7554
vn 0.7554 0.5757 -0.3129
vn -0.7200 0.6266 -0.2983
vn -0.7200 0.6266 0.2983
vn -0.2983 0.6266 0.7200
vn 0.2983 0.6266 0.7200
vn 0.7200 0.6266 0.2983
vn 0.7200 0.6266 -0.2983
vn 0.2422 0.9650 -0.1003
vn 0.2422 0.9650 0.1003
vn 0.1003 0.9650 0.2422
vn -0.1003 0.9650 0.2422
vn -0.2422 0.9650 0.1003
vn -0.2422 0.9650 -0.1003
vn 0.1003 0.9650 -0.2422
vn -0.1003 0.9650 -0.2422
vn 0.8178 -0.4653 0.3387
vn 0.3387 -0.4653 0.8178
vn 0.8178 -0.4653 -0.3387
vn -0.8178 -0.4653 0.3387
vn -0.3387 -0.4653 0.8178
vn 0.3387 -0.4653 -0.8178
vn 0.3518 0.9198 -0.1736
vn 0.3715 0.9198 0.1260
vn -0.3715 0.9198 -0.1260
vn 0.1260 0.9198 -0.3715
vn 0.3715 0.9198 -0.1260
vn -0.1260 0.9198 -0.3715
vn -0.3518 0.9198 0.1736
vn -0.3518 0.9198 -0.1736
vn -0.1260 0.9198 0.3715
vn -0.3715 0.9198 0.1260
vn 0.1736 0.9198 0.3518
vn -0.3118 0.5798 -0.7527
vn 0.3118 0.5798 -0.7527
vn 0.1809 0.8812 0.4367
vn 0.3118 0.5798 0.7527
vn -0.3118 0.5798 0.7527
usemtl None
s off
f 2//1 6//1 30//1
f 1//2 4//2 29//2
f 29//3 5//3 2//3
f 1//4 18//4 3//4
f 4//5 9//5 5//5
f 3//6 18//6 7//6
f 5//7 10//7 6//7
f 3//8 8//8 4//8
f 8//9 13//9 9//9
f 7//10 18//10 11//10
f 9//11 14//11 10//11
f 7//12 12//12 8//12
f 12//13 17//13 13//13
f 11//14 18//14 15//14
f 13//15 135//15 14//15
f 11//16 16//16 12//16
f 16//17 21//17 17//17
f 15//18 18//18 19//18
f 17//19 136//19 135//19
f 16//20 19//20 20//20
f 20//21 24//21 21//21
f 19//22 18//22 22//22
f 21//23 137//23 136//23
f 19//24 23//24 20//24
f 177//25 180//25 179//25
f 23//26 27//26 24//26
f 22//27 18//27 25//27
f 137//28 27//28 28//28
f 22//29 26//29 23//29
f 26//30 2//30 27//30
f 25//31 18//31 1//31
f 27//32 30//32 28//32
f 25//33 29//33 26//33
f 141//34 139//34 138//34
f 126//35 117//35 123//35
f 131//36 109//36 120//36
f 165//37 217//37 195//37
f 143//38 139//38 142//38
f 35//39 100//39 119//39
f 141//40 31//40 42//40
f 145//41 141//41 144//41
f 146//42 142//42 145//42
f 37//43 101//43 35//43
f 144//44 42//44 40//44
f 148//45 144//45 147//45
f 149//46 145//46 148//46
f 39//47 34//47 36//47
f 157//48 153//48 156//48
f 147//49 40//49 38//49
f 122//50 127//50 128//50
f 153//51 36//51 34//51
f 158//52 154//52 157//52
f 102//53 104//53 131//53
f 156//54 34//54 33//54
f 43//55 133//55 41//55
f 159//56 33//56 32//56
f 159//57 157//57 156//57
f 112//58 37//58 132//58
f 140//59 160//59 139//59
f 139//60 159//60 138//60
f 88//61 97//61 96//61
f 62//62 65//62 63//62
f 91//63 92//63 99//63
f 89//64 69//64 71//64
f 82//65 97//65 98//65
f 45//66 62//66 61//66
f 61//67 63//67 60//67
f 65//68 85//68 63//68
f 69//69 87//69 67//69
f 77//70 92//70 93//70
f 62//71 49//71 64//71
f 85//72 94//72 93//72
f 86//73 95//73 94//73
f 87//74 96//74 95//74
f 95//75 78//75 94//75
f 64//76 51//76 66//76
f 64//77 67//77 65//77
f 84//78 93//78 92//78
f 98//79 91//79 99//79
f 66//80 69//80 67//80
f 51//81 68//81 66//81
f 58//82 46//82 50//82
f 123//83 113//83 43//83
f 89//84 98//84 97//84
f 91//85 73//85 75//85
f 69//86 70//86 71//86
f 50//87 80//87 52//87
f 53//88 70//88 68//88
f 80//89 54//89 52//89
f 46//90 78//90 48//90
f 78//91 50//91 48//91
f 85//92 60//92 63//92
f 71//93 72//93 73//93
f 70//94 57//94 72//94
f 83//95 44//95 58//95
f 81//96 56//96 54//96
f 76//97 46//97 44//97
f 82//98 58//98 56//98
f 87//99 65//99 67//99
f 72//100 75//100 73//100
f 57//101 74//101 72//101
f 76//102 99//102 92//102
f 94//103 77//103 93//103
f 84//104 75//104 60//104
f 74//105 60//105 75//105
f 97//106 80//106 96//106
f 59//107 61//107 74//107
f 83//108 98//108 99//108
f 90//109 71//109 73//109
f 96//110 79//110 95//110
f 116//111 102//111 37//111
f 119//112 32//112 33//112
f 41//113 134//113 39//113
f 121//114 126//114 127//114
f 113//115 132//115 43//115
f 42//116 128//116 40//116
f 120//117 108//117 126//117
f 106//118 116//118 115//118
f 111//119 53//119 51//119
f 118//120 108//120 107//120
f 110//121 104//121 103//121
f 107//122 59//122 57//122
f 118//123 57//123 55//123
f 114//124 117//124 118//124
f 106//125 49//125 47//125
f 110//126 45//126 59//126
f 111//127 116//127 112//127
f 115//128 51//128 49//128
f 103//129 47//129 45//129
f 111//130 113//130 114//130
f 114//131 55//131 53//131
f 107//132 109//132 110//132
f 103//133 105//133 106//133
f 38//134 39//134 36//134
f 125//135 41//135 39//135
f 124//136 43//136 41//136
f 134//137 33//137 34//137
f 133//138 119//138 134//138
f 132//139 35//139 133//139
f 100//140 31//140 32//140
f 101//141 129//141 100//141
f 102//142 130//142 101//142
f 31//143 122//143 42//143
f 129//144 121//144 122//144
f 130//145 120//145 121//145
f 40//146 125//146 38//146
f 128//147 124//147 125//147
f 127//148 123//148 124//148
f 217//37 176//37 177//37
f 214//149 162//149 204//149
f 165//150 191//150 202//150
f 164//151 187//151 207//151
f 216//152 164//152 207//152
f 210//153 167//153 206//153
f 217//154 165//154 202//154
f 150//155 38//155 36//155
f 155//156 151//156 154//156
f 154//157 150//157 153//157
f 152//158 148//158 151//158
f 208//159 162//159 213//159
f 138//160 32//160 31//160
f 160//161 158//161 157//161
f 151//162 147//162 150//162
f 178//163 177//163 179//163
f 216//164 175//164 176//164
f 215//165 170//165 171//165
f 214//166 172//166 173//166
f 213//167 173//167 174//167
f 212//168 171//168 172//168
f 211//169 177//169 170//169
f 210//170 174//170 175//170
f 176//171 181//171 180//171
f 181//172 174//172 182//172
f 174//173 183//173 182//173
f 173//174 184//174 183//174
f 184//175 171//175 185//175
f 185//176 170//176 178//176
f 10//177 178//177 6//177
f 14//178 185//178 10//178
f 135//179 184//179 14//179
f 136//180 183//180 135//180
f 137//181 182//181 136//181
f 180//182 137//182 28//182
f 6//183 179//183 30//183
f 179//184 28//184 30//184
f 143//150 187//150 202//150
f 158//185 192//185 203//185
f 155//186 193//186 204//186
f 161//187 186//187 205//187
f 149//188 189//188 206//188
f 146//151 188//151 207//151
f 152//189 190//189 208//189
f 140//190 191//190 209//190
f 207//191 167//191 216//191
f 217//37 164//37 194//37
f 202//192 164//192 217//192
f 204//193 166//193 214//193
f 206//194 163//194 210//194
f 216//164 194//164 164//164
f 202//150 187//150 164//150
f 213//195 163//195 208//195
f 212//196 166//196 203//196
f 203//197 169//197 212//197
f 215//198 169//198 205//198
f 205//199 168//199 215//199
f 211//200 168//200 209//200
f 209//201 165//201 211//201
f 167//151 207//151 188//151
f 188//188 206//188 167//188
f 163//188 206//188 189//188
f 163//189 189//189 208//189
f 162//189 208//189 190//189
f 162//186 190//186 204//186
f 166//186 204//186 193//186
f 193//185 203//185 166//185
f 169//185 203//185 192//185
f 192//187 205//187 169//187
f 168//187 205//187 186//187
f 168//190 186//190 209//190
f 165//190 209//190 191//190
f 199//168 166//168 212//168
f 199//166 214//166 166//166
f 200//166 162//166 214//166
f 162//167 200//167 213//167
f 201//167 163//167 213//167
f 163//170 201//170 210//170
f 196//170 167//170 210//170
f 196//164 216//164 167//164
f 165//169 195//169 211//169
f 197//169 168//169 211//169
f 197//165 215//165 168//165
f 198//165 169//165 215//165
f 169//168 198//168 212//168
f 2//1 5//1 6//1
f 1//2 3//2 4//2
f 29//3 4//3 5//3
f 4//5 8//5 9//5
f 5//7 9//7 10//7
f 3//8 7//8 8//8
f 8//9 12//9 13//9
f 9//11 13//11 14//11
f 7//12 11//12 12//12
f 12//13 16//13 17//13
f 13//15 17//15 135//15
f 11//16 15//16 16//16
f 16//17 20//17 21//17
f 17//19 21//19 136//19
f 16//20 15//20 19//20
f 20//21 23//21 24//21
f 21//23 24//23 137//23
f 19//24 22//24 23//24
f 177//25 176//25 180//25
f 23//26 26//26 27//26
f 137//28 24//28 27//28
f 22//29 25//29 26//29
f 26//30 29//30 2//30
f 27//32 2//32 30//32
f 25//33 1//33 29//33
f 141//34 142//34 139//34
f 126//35 108//35 117//35
f 131//36 104//36 109//36
f 143//202 140//202 139//202
f 35//39 101//39 100//39
f 141//40 138//40 31//40
f 145//41 142//41 141//41
f 146//42 143//42 142//42
f 37//43 102//43 101//43
f 144//44 141//44 42//44
f 148//45 145//45 144//45
f 149//46 146//46 145//46
f 39//47 134//47 34//47
f 157//48 154//48 153//48
f 147//49 144//49 40//49
f 122//50 121//50 127//50
f 153//51 150//51 36//51
f 158//52 155//52 154//52
f 102//53 105//53 104//53
f 156//54 153//54 34//54
f 43//55 132//55 133//55
f 159//56 156//56 33//56
f 159//57 160//57 157//57
f 112//58 116//58 37//58
f 140//203 161//203 160//203
f 139//60 160//60 159//60
f 88//61 89//61 97//61
f 62//62 64//62 65//62
f 91//63 84//63 92//63
f 89//64 88//64 69//64
f 82//65 81//65 97//65
f 45//66 47//66 62//66
f 61//67 62//67 63//67
f 65//68 86//68 85//68
f 69//69 88//69 87//69
f 77//70 76//70 92//70
f 62//71 47//71 49//71
f 85//72 86//72 94//72
f 86//73 87//73 95//73
f 87//74 88//74 96//74
f 95//75 79//75 78//75
f 64//76 49//76 51//76
f 64//77 66//77 67//77
f 84//78 85//78 93//78
f 98//79 90//79 91//79
f 66//80 68//80 69//80
f 51//204 53//204 68//204
f 50//82 52//82 54//82
f 54//82 56//82 50//82
f 56//82 58//82 50//82
f 58//82 44//82 46//82
f 46//82 48//82 50//82
f 123//83 117//83 113//83
f 89//84 90//84 98//84
f 91//85 90//85 73//85
f 69//86 68//86 70//86
f 50//87 79//87 80//87
f 53//88 55//88 70//88
f 80//89 81//89 54//89
f 46//90 77//90 78//90
f 78//91 79//91 50//91
f 85//92 84//92 60//92
f 71//93 70//93 72//93
f 70//94 55//94 57//94
f 83//95 76//95 44//95
f 81//96 82//96 56//96
f 76//97 77//97 46//97
f 82//98 83//98 58//98
f 87//99 86//99 65//99
f 72//100 74//100 75//100
f 57//101 59//101 74//101
f 76//102 83//102 99//102
f 94//103 78//103 77//103
f 84//104 91//104 75//104
f 74//105 61//105 60//105
f 97//106 81//106 80//106
f 59//107 45//107 61//107
f 83//108 82//108 98//108
f 90//109 89//109 71//109
f 96//110 80//110 79//110
f 116//111 105//111 102//111
f 119//112 100//112 32//112
f 41//113 133//113 134//113
f 121//114 120//114 126//114
f 113//115 112//115 132//115
f 42//116 122//116 128//116
f 120//117 109//117 108//117
f 106//118 105//118 116//118
f 111//119 114//119 53//119
f 118//120 117//120 108//120
f 110//121 109//121 104//121
f 107//122 110//122 59//122
f 118//123 107//123 57//123
f 114//124 113//124 117//124
f 106//125 115//125 49//125
f 110//126 103//126 45//126
f 111//127 115//127 116//127
f 115//128 111//128 51//128
f 103//129 106//129 47//129
f 111//130 112//130 113//130
f 114//131 118//131 55//131
f 107//132 108//132 109//132
f 103//133 104//133 105//133
f 38//134 125//134 39//134
f 125//135 124//135 41//135
f 124//136 123//136 43//136
f 134//137 119//137 33//137
f 133//138 35//138 119//138
f 132//139 37//139 35//139
f 100//140 129//140 31//140
f 101//141 130//141 129//141
f 102//142 131//142 130//142
f 31//143 129//143 122//143
f 129//144 130//144 121//144
f 130//145 131//145 120//145
f 40//146 128//146 125//146
f 128//147 127//147 124//147
f 127//148 126//148 123//148
f 177//37 195//37 217//37
f 217//37 194//37 176//37
f 150//155 147//155 38//155
f 155//205 152//205 151//205
f 154//157 151//157 150//157
f 152//206 149//206 148//206
f 138//160 159//160 32//160
f 160//161 161//161 158//161
f 151//162 148//162 147//162
f 178//163 170//163 177//163
f 176//164 194//164 216//164
f 216//164 196//164 175//164
f 171//165 198//165 215//165
f 215//165 197//165 170//165
f 173//166 200//166 214//166
f 214//166 199//166 172//166
f 174//167 201//167 213//167
f 213//167 200//167 173//167
f 172//168 199//168 212//168
f 212//168 198//168 171//168
f 170//169 197//169 211//169
f 211//169 195//169 177//169
f 175//170 196//170 210//170
f 210//170 201//170 174//170
f 176//171 175//171 181//171
f 181//172 175//172 174//172
f 174//173 173//173 183//173
f 173//174 172//174 184//174
f 184//175 172//175 171//175
f 185//176 171//176 170//176
f 10//177 185//177 178//177
f 14//178 184//178 185//178
f 135//179 183//179 184//179
f 136//180 182//180 183//180
f 137//181 181//181 182//181
f 180//182 181//182 137//182
f 6//183 178//183 179//183
f 179//184 180//184 28//184
f 191//150 140//150 202//150
f 140//150 143//150 202//150
f 193//185 155//185 203//185
f 155//185 158//185 203//185
f 190//186 152//186 204//186
f 152//186 155//186 204//186
f 192//187 158//187 205//187
f 158//187 161//187 205//187
f 188//188 146//188 206//188
f 146//188 149//188 206//188
f 187//151 143//151 207//151
f 143//151 146//151 207//151
f 189//189 149//189 208//189
f 149//189 152//189 208//189
f 186//190 161//190 209//190
f 161//190 140//190 209//190
